<?xml version="1.0" standalone="no"?>
<!DOCTYPE svg PUBLIC "-//W3C//DTD SVG 20010904//EN"
 "http://www.w3.org/TR/2001/REC-SVG-20010904/DTD/svg10.dtd">
<svg version="1.0" xmlns="http://www.w3.org/2000/svg"
 width="64.000000pt" height="64.000000pt" viewBox="0 0 64.000000 64.000000"
 preserveAspectRatio="xMidYMid meet">

<g transform="translate(0.000000,64.000000) scale(0.100000,-0.100000)"
fill="#ffffff" stroke="none">
<path d="M82 557 c-21 -22 -22 -31 -22 -238 0 -283 -25 -259 261 -259 283 0
259 -25 259 261 0 283 25 259 -261 259 -212 0 -216 0 -237 -23z m462 -13 c24
-23 24 -425 0 -448 -23 -24 -425 -24 -448 0 -24 23 -24 425 0 448 23 24 425
24 448 0z"/>
<path d="M260 510 c-7 -16 -20 -30 -29 -30 -9 -1 -27 -7 -41 -15 l-25 -14 35
-1 35 -1 -30 -13 c-17 -7 -36 -20 -43 -29 -12 -14 -10 -15 21 -10 19 3 43 1
53 -5 16 -9 16 -10 -4 -16 -26 -9 -29 -26 -4 -26 30 0 75 -37 110 -92 l34 -53
-5 49 c-3 27 -14 61 -26 77 -23 31 -17 37 14 15 27 -18 106 -28 125 -16 8 5
11 10 5 10 -5 0 -4 4 4 9 11 7 4 14 -26 29 -22 12 -47 31 -55 44 -9 13 -34 32
-56 42 -26 12 -45 29 -52 47 -16 37 -24 37 -40 -1z m130 -100 c0 -5 -2 -10 -4
-10 -3 0 -8 5 -11 10 -3 6 -1 10 4 10 6 0 11 -4 11 -10z"/>
<path d="M110 140 c0 -11 5 -20 10 -20 6 0 10 9 10 20 0 11 -4 20 -10 20 -5 0
-10 -9 -10 -20z"/>
<path d="M160 140 c0 -11 5 -20 10 -20 6 0 10 9 10 20 0 11 -4 20 -10 20 -5 0
-10 -9 -10 -20z"/>
<path d="M210 140 c0 -11 5 -20 10 -20 6 0 10 9 10 20 0 11 -4 20 -10 20 -5 0
-10 -9 -10 -20z"/>
<path d="M260 140 c0 -11 5 -20 10 -20 6 0 10 9 10 20 0 11 -4 20 -10 20 -5 0
-10 -9 -10 -20z"/>
<path d="M310 140 c0 -11 5 -20 10 -20 6 0 10 9 10 20 0 11 -4 20 -10 20 -5 0
-10 -9 -10 -20z"/>
<path d="M360 140 c0 -11 5 -20 10 -20 6 0 10 9 10 20 0 11 -4 20 -10 20 -5 0
-10 -9 -10 -20z"/>
<path d="M410 140 c0 -11 5 -20 10 -20 6 0 10 9 10 20 0 11 -4 20 -10 20 -5 0
-10 -9 -10 -20z"/>
<path d="M460 140 c0 -11 5 -20 10 -20 6 0 10 9 10 20 0 11 -4 20 -10 20 -5 0
-10 -9 -10 -20z"/>
<path d="M510 140 c0 -11 5 -20 10 -20 6 0 10 9 10 20 0 11 -4 20 -10 20 -5 0
-10 -9 -10 -20z"/>
</g>
</svg>
